<svg width="356" height="96" viewBox="0 0 356 96" fill="none" xmlns="http://www.w3.org/2000/svg">
<path d="M36.912 31.76C39.92 31.76 42.256 32.416 43.92 33.728C45.616 35.008 46.464 36.896 46.464 39.392C46.464 41.248 45.936 42.704 44.88 43.76C43.856 44.784 42.56 45.504 40.992 45.92C41.888 46.08 42.72 46.368 43.488 46.784C44.256 47.168 44.928 47.68 45.504 48.32C46.08 48.96 46.528 49.728 46.848 50.624C47.2 51.488 47.376 52.464 47.376 53.552C47.376 54.8 47.104 55.952 46.56 57.008C46.016 58.032 45.264 58.912 44.304 59.648C43.344 60.384 42.208 60.96 40.896 61.376C39.584 61.792 38.144 62 36.576 62H27.84V31.76H36.912ZM32.256 44.384H35.856C36.656 44.384 37.424 44.32 38.16 44.192C38.896 44.064 39.536 43.824 40.08 43.472C40.656 43.12 41.104 42.656 41.424 42.08C41.776 41.472 41.952 40.688 41.952 39.728C41.952 38.192 41.424 37.072 40.368 36.368C39.344 35.664 37.968 35.312 36.24 35.312H32.256V44.384ZM32.256 58.448H36.096C36.992 58.448 37.84 58.368 38.64 58.208C39.44 58.016 40.144 57.712 40.752 57.296C41.36 56.88 41.84 56.336 42.192 55.664C42.576 54.96 42.768 54.112 42.768 53.12C42.768 52.128 42.544 51.312 42.096 50.672C41.68 50 41.12 49.456 40.416 49.04C39.712 48.624 38.912 48.336 38.016 48.176C37.12 47.984 36.224 47.888 35.328 47.888H32.256V58.448ZM77.0453 51.2H60.8692V51.392C60.8692 53.888 61.5412 55.808 62.8852 57.152C64.2612 58.496 66.1172 59.168 68.4532 59.168C69.6693 59.168 70.7413 59.072 71.6692 58.88C72.6292 58.688 73.6693 58.368 74.7893 57.92L75.6532 61.04C74.7253 61.456 73.6213 61.792 72.3412 62.048C71.0933 62.304 69.7493 62.432 68.3092 62.432C66.6772 62.432 65.1412 62.208 63.7012 61.76C62.2932 61.312 61.0452 60.624 59.9572 59.696C58.8692 58.736 58.0052 57.52 57.3652 56.048C56.7572 54.576 56.4532 52.816 56.4532 50.768C56.4532 49.008 56.7092 47.408 57.2212 45.968C57.7652 44.528 58.5172 43.312 59.4772 42.32C60.4372 41.296 61.5892 40.512 62.9332 39.968C64.3092 39.392 65.8452 39.104 67.5412 39.104C68.9813 39.104 70.2773 39.344 71.4292 39.824C72.6132 40.304 73.6213 40.976 74.4533 41.84C75.2853 42.704 75.9253 43.744 76.3733 44.96C76.8213 46.176 77.0453 47.52 77.0453 48.992V51.2ZM72.6772 48.176C72.6772 47.344 72.5652 46.576 72.3412 45.872C72.1493 45.136 71.8293 44.496 71.3813 43.952C70.9653 43.408 70.4212 42.976 69.7492 42.656C69.0773 42.336 68.2613 42.176 67.3012 42.176C65.5412 42.176 64.1012 42.736 62.9812 43.856C61.8932 44.976 61.2212 46.448 60.9652 48.272L72.6772 48.176ZM102.043 27.92H106.267V62H102.715L102.187 59.504H102.043C101.051 60.528 100.043 61.28 99.0191 61.76C98.0271 62.208 96.7631 62.432 95.2271 62.432C94.0111 62.432 92.8271 62.192 91.6751 61.712C90.5551 61.232 89.5471 60.512 88.6511 59.552C87.7551 58.592 87.0351 57.392 86.4911 55.952C85.9471 54.48 85.6751 52.752 85.6751 50.768C85.6751 49.008 85.8991 47.408 86.3471 45.968C86.8271 44.528 87.4991 43.296 88.3631 42.272C89.2271 41.248 90.2831 40.464 91.5311 39.92C92.7791 39.376 94.2031 39.104 95.8031 39.104C96.9871 39.104 98.1071 39.296 99.1631 39.68C100.251 40.032 101.211 40.576 102.043 41.312V27.92ZM102.043 44.864C100.539 43.168 98.7631 42.32 96.7151 42.32C95.8511 42.32 95.0031 42.48 94.1711 42.8C93.3711 43.088 92.6511 43.568 92.0111 44.24C91.4031 44.912 90.9071 45.776 90.5231 46.832C90.1391 47.888 89.9471 49.152 89.9471 50.624C89.9471 52.16 90.1231 53.472 90.4751 54.56C90.8271 55.616 91.2911 56.496 91.8671 57.2C92.4751 57.872 93.1471 58.368 93.8831 58.688C94.6511 59.008 95.4191 59.168 96.1871 59.168C98.5871 59.168 100.539 58.128 102.043 56.048V44.864ZM117.506 62V39.44H120.674L121.394 43.952C121.938 42.512 122.834 41.344 124.082 40.448C125.33 39.552 126.77 39.104 128.402 39.104C129.234 39.104 129.922 39.168 130.466 39.296C131.01 39.424 131.506 39.584 131.954 39.776L131.138 43.472C130.754 43.28 130.322 43.12 129.842 42.992C129.394 42.864 128.85 42.8 128.21 42.8C127.282 42.8 126.418 42.96 125.618 43.28C124.85 43.6 124.162 44.08 123.554 44.72C122.978 45.36 122.514 46.16 122.162 47.12C121.842 48.048 121.682 49.12 121.682 50.336V62H117.506ZM140.698 62V39.44H144.922V62H140.698ZM142.81 33.632C142.074 33.632 141.434 33.392 140.89 32.912C140.378 32.4 140.122 31.776 140.122 31.04C140.122 30.304 140.378 29.68 140.89 29.168C141.434 28.656 142.074 28.4 142.81 28.4C143.514 28.4 144.138 28.656 144.682 29.168C145.226 29.68 145.498 30.304 145.498 31.04C145.498 31.776 145.226 32.4 144.682 32.912C144.138 33.392 143.514 33.632 142.81 33.632ZM165.135 27.68C166.031 27.68 166.959 27.808 167.919 28.064C168.911 28.32 169.791 28.64 170.559 29.024L169.695 31.952C169.055 31.696 168.447 31.504 167.871 31.376C167.295 31.216 166.687 31.136 166.047 31.136C164.511 31.136 163.407 31.568 162.735 32.432C162.095 33.296 161.775 34.768 161.775 36.848V39.44H168.639V42.608H161.775V62H157.599V42.608H154.287V39.44H157.599V35.456C157.599 32.96 158.239 31.04 159.519 29.696C160.831 28.352 162.703 27.68 165.135 27.68ZM188.764 42.608H182.14V55.712C182.14 56.832 182.412 57.584 182.956 57.968C183.532 58.352 184.268 58.544 185.164 58.544C185.804 58.544 186.508 58.48 187.276 58.352C188.044 58.192 188.716 58.016 189.292 57.824L189.964 61.04C189.324 61.296 188.508 61.52 187.516 61.712C186.524 61.904 185.484 62 184.396 62C182.156 62 180.524 61.52 179.5 60.56C178.476 59.568 177.964 58.144 177.964 56.288V42.608H174.604V39.44H177.964V32.24H182.14V39.44H188.764V42.608ZM211.864 43.664C210.808 43.152 209.848 42.8 208.984 42.608C208.12 42.416 207.256 42.32 206.392 42.32C204.856 42.32 203.72 42.608 202.984 43.184C202.248 43.728 201.88 44.464 201.88 45.392C201.88 46.064 202.136 46.656 202.648 47.168C203.16 47.648 204.232 48.128 205.864 48.608L207.304 49.04C209.448 49.68 211.064 50.512 212.152 51.536C213.272 52.528 213.832 53.888 213.832 55.616C213.832 57.664 213.064 59.312 211.528 60.56C210.024 61.808 207.912 62.432 205.192 62.432C203.752 62.432 202.36 62.304 201.016 62.048C199.704 61.792 198.568 61.44 197.608 60.992L198.616 57.68C199.544 58.128 200.552 58.496 201.64 58.784C202.728 59.04 203.832 59.168 204.952 59.168C206.392 59.168 207.528 58.912 208.36 58.4C209.224 57.888 209.656 57.04 209.656 55.856C209.656 54.832 209.288 54.112 208.552 53.696C207.816 53.248 206.76 52.816 205.384 52.4L203.896 51.92C201.816 51.248 200.264 50.416 199.24 49.424C198.248 48.4 197.752 47.088 197.752 45.488C197.752 44.528 197.96 43.648 198.376 42.848C198.792 42.048 199.352 41.376 200.056 40.832C200.792 40.288 201.656 39.872 202.648 39.584C203.64 39.264 204.728 39.104 205.912 39.104C207.032 39.104 208.184 39.216 209.368 39.44C210.584 39.632 211.736 39.968 212.824 40.448L211.864 43.664ZM237.459 34.736L239.475 35.216L237.987 39.968C239.811 40.8 241.299 42.064 242.451 43.76C243.635 45.456 244.227 47.696 244.227 50.48C244.227 52.368 243.939 54.064 243.363 55.568C242.787 57.04 241.987 58.288 240.963 59.312C239.971 60.336 238.803 61.12 237.459 61.664C236.115 62.176 234.659 62.432 233.091 62.432C232.643 62.432 232.195 62.4 231.747 62.336C231.331 62.304 230.931 62.256 230.547 62.192L229.251 66.368L227.283 65.84L228.627 61.616C226.675 60.784 225.107 59.504 223.923 57.776C222.739 56.048 222.147 53.776 222.147 50.96C222.147 49.072 222.435 47.392 223.011 45.92C223.587 44.448 224.371 43.216 225.363 42.224C226.387 41.2 227.571 40.432 228.915 39.92C230.259 39.376 231.715 39.104 233.283 39.104C234.179 39.104 235.091 39.2 236.019 39.392L237.459 34.736ZM233.139 42.368C232.307 42.368 231.491 42.496 230.691 42.752C229.891 43.008 229.187 43.456 228.579 44.096C227.971 44.736 227.475 45.6 227.091 46.688C226.739 47.744 226.563 49.088 226.563 50.72C226.563 52.704 226.867 54.304 227.475 55.52C228.115 56.736 228.915 57.648 229.875 58.256L234.771 42.56C234.515 42.496 234.243 42.448 233.955 42.416C233.667 42.384 233.395 42.368 233.139 42.368ZM239.811 50.72C239.811 48.8 239.507 47.264 238.899 46.112C238.323 44.928 237.571 44.032 236.643 43.424L231.795 59.024C232.275 59.12 232.755 59.168 233.235 59.168C234.067 59.168 234.883 59.04 235.683 58.784C236.483 58.496 237.187 58.032 237.795 57.392C238.403 56.72 238.883 55.856 239.235 54.8C239.619 53.712 239.811 52.352 239.811 50.72ZM258.391 53.744V62H254.215V27.92H258.391V49.136L267.463 39.44H272.695L263.431 48.944L273.127 62H268.135L260.647 51.488L258.391 53.744Z" fill="#18303A"/>
<path d="M302 63H300V65H302M302 59H300V61H302M304 67H296V65H298V63H296V61H298V59H296V57H304M294 55H292V53H294M294 59H292V57H294M294 63H292V61H294M294 67H292V65H294M290 55H288V53H290M290 59H288V57H290M290 63H288V61H290M290 67H288V65H290M296 55V51H286V69H306V55H296Z" fill="#1F702B"/>
<g clip-path="url(#clip0_4_129)">
<path d="M316 62H312V66H316M316 54H312V58H316M320 70H304V66H308V62H304V58H308V54H304V50H320M300 46H296V42H300M300 54H296V50H300M300 62H296V58H300M300 70H296V66H300M292 46H288V42H292M292 54H288V50H292M292 62H288V58H292M292 70H288V66H292M304 46V38H284V74H324V46H304Z" fill="#1F702B"/>
</g>
<path d="M308 63C317.389 63 325 55.389 325 46C325 36.611 317.389 29 308 29C298.611 29 291 36.611 291 46C291 55.389 298.611 63 308 63Z" stroke="#18303A" stroke-width="4" stroke-linejoin="round"/>
<path d="M313.657 39.343C312.915 38.599 312.033 38.0091 311.062 37.607C310.092 37.2049 309.051 36.9986 308 37C306.949 36.9986 305.909 37.2049 304.938 37.607C303.967 38.0091 303.085 38.599 302.343 39.343M320.222 58.222L328.707 66.707" stroke="#18303A" stroke-width="4" stroke-linecap="round" stroke-linejoin="round"/>
<defs>
<clipPath id="clip0_4_129">
<rect width="34" height="34" fill="white" transform="translate(291 29)"/>
</clipPath>
</defs>
</svg>